HIERARCHY
ROOT hip
{
	OFFSET 0.000000 0.000000 0.000000 
	CHANNELS 6 Xposition Yposition Zposition Xrotation Zrotation Yrotation
	JOINT abdomen
	{
		OFFSET 0.000000 3.402643 0.000000 
		CHANNELS 3 Xrotation Zrotation Yrotation
		JOINT chest
		{
			OFFSET 0.000000 8.438565 -0.680529 
			CHANNELS 3 Xrotation Zrotation Yrotation
			JOINT neck
			{
				OFFSET 0.000000 10.207942 -0.272212 
				CHANNELS 3 Xrotation Zrotation Yrotation
				JOINT head
				{
					OFFSET 0.000000 3.130431 0.000000 
					CHANNELS 3 Xrotation Zrotation Yrotation
					End Site
					{
						OFFSET 0.000000 3.130435 0.000000 
					}
				}
			}
			JOINT lCollar
			{
				OFFSET 3.470700 6.669187 -0.816635 
				CHANNELS 3 Yrotation Zrotation Xrotation
				JOINT lShldr
				{
					OFFSET 3.198488 0.000000 0.000000 
					CHANNELS 3 Zrotation Yrotation Xrotation
					JOINT lForeArm
					{
						OFFSET 10.139888 0.000000 0.000000 
						CHANNELS 3 Yrotation Zrotation Xrotation
						JOINT lHand
						{
							OFFSET 8.370511 0.000000 0.000000 
							CHANNELS 3 Zrotation Yrotation Xrotation
							End Site
							{
								OFFSET 4.083176 0.000000 0.000000 
							}
						}
					}
				}
			}
			JOINT rCollar
			{
				OFFSET -3.470700 6.669187 -0.816635 
				CHANNELS 3 Yrotation Zrotation Xrotation
				JOINT rShldr
				{
					OFFSET -3.198488 0.000000 0.000000 
					CHANNELS 3 Zrotation Yrotation Xrotation
					JOINT rForeArm
					{
						OFFSET -10.139888 0.000000 0.000000 
						CHANNELS 3 Yrotation Zrotation Xrotation
						JOINT rHand
						{
							OFFSET -8.370511 0.000000 0.000000 
							CHANNELS 3 Zrotation Yrotation Xrotation
							End Site
							{
								OFFSET -4.083176 0.000000 0.000000 
							}
						}
					}
				}
			}
		}
	}
	JOINT lThigh
	{
		OFFSET 5.308129 -1.633274 1.361059 
		CHANNELS 3 Xrotation Zrotation Yrotation
		JOINT lShin
		{
			OFFSET -2.041588 -20.007561 0.000000 
			CHANNELS 3 Xrotation Zrotation Yrotation
			JOINT lFoot
			{
				OFFSET 0.000000 -19.190928 -1.224953 
				CHANNELS 3 Xrotation Yrotation Zrotation
				End Site
				{
					OFFSET 0.000000 -2.449906 4.627600 
				}
			}
		}
	}
	JOINT rThigh
	{
		OFFSET -5.308129 -1.633274 1.361059 
		CHANNELS 3 Xrotation Zrotation Yrotation
		JOINT rShin
		{
			OFFSET 2.041588 -20.007561 0.000000 
			CHANNELS 3 Xrotation Zrotation Yrotation
			JOINT rFoot
			{
				OFFSET 0.000000 -19.190928 -1.224953 
				CHANNELS 3 Xrotation Yrotation Zrotation
				End Site
				{
					OFFSET 0.000000 -2.449906 4.627600 
				}
			}
		}
	}
}
MOTION
Frames: 16
Frame Time: 0.033333
0.492795 38.295048 0.147039 0.928875 -0.299549 -16.553011 2.460938 0.000000 -0.019531 25.356617 7.565712 -20.034681 -9.443359 -0.009766 0.000000 19.799641 16.861872 47.851227 1.992188 -2.001953 0.000341 -8.239847 -51.024727 -29.173962 -46.276134 -0.600172 8.546262 -37.514858 -54.129982 -161.624969 -2.001953 1.992188 0.000000 -31.261362 136.561768 -91.427597 54.416676 0.529221 8.603282 13.172535 -54.107136 -39.722000 -27.534843 22.006117 15.184368 23.219761 -1.459757 -2.031363 8.035370 -6.692422 -10.483315 7.651268 -17.092312 -13.623643 22.968431 1.408982 2.008840 -22.223272 -16.196442 16.777023 
0.590448 38.207905 0.215846 0.928875 -0.299549 -16.553011 2.460938 0.000000 -0.019531 25.356617 7.565712 -20.034681 -9.443359 -0.009766 0.000000 19.799641 16.861872 47.851227 1.992188 -2.001953 0.000341 -8.239847 -51.024727 -29.173962 -46.276134 -0.600172 8.546262 -37.514858 -54.129982 -161.624969 -2.001953 1.992188 0.000000 -31.261362 136.561768 -91.427597 54.416676 0.529221 8.603282 13.172535 -54.107136 -39.722000 -27.534840 22.006121 15.184366 23.219761 -1.459759 -2.031363 8.035370 -6.692424 -10.483316 7.651269 -17.092310 -13.623643 22.968431 1.408983 2.008840 -22.223272 -16.196442 16.777023 
0.688100 38.120773 0.284652 0.928875 -0.299549 -16.553011 2.460938 0.000000 -0.019531 25.356617 7.565712 -20.034681 -9.443359 -0.009766 0.000000 19.799641 16.861872 47.851227 1.992188 -2.001953 0.000341 -8.239847 -51.024727 -29.173962 -46.276134 -0.600172 8.546262 -37.514858 -54.129982 -161.624969 -2.001953 1.992188 0.000000 -31.261362 136.561768 -91.427597 54.416676 0.529221 8.603282 13.172535 -54.107136 -39.722000 -27.534840 22.006121 15.184366 23.219761 -1.459757 -2.031363 8.035370 -6.692424 -10.483316 7.651269 -17.092312 -13.623643 22.968431 1.408983 2.008840 -22.223272 -16.196442 16.777023 
0.785755 38.033634 0.353462 -0.988064 -0.413887 -15.586369 2.460938 0.000000 -0.019531 26.884209 7.521334 -20.575491 -9.443359 -0.009766 0.000000 18.734194 15.687243 47.464451 1.992188 -2.001953 0.000341 -19.140530 -38.347000 -22.074450 -60.883972 -0.543756 8.685003 -45.182056 -49.996075 -149.727997 -2.001953 1.992188 0.000000 -34.320702 137.538483 -90.249062 56.789928 0.519354 8.615519 12.493968 -53.860943 -39.174366 -27.838449 21.489885 14.751335 28.248625 -1.280614 -2.343262 5.095253 -5.886111 -9.772477 3.327929 -17.065159 -12.575833 29.239046 1.187916 2.362625 -24.135279 -15.060675 15.784811 
0.883405 37.946499 0.422267 -2.899173 -0.491372 -14.619763 2.460938 0.000000 -0.019531 28.407570 7.485043 -21.125942 -9.443359 -0.009766 0.000000 17.684633 14.504042 47.106842 1.992188 -2.001953 0.000341 -26.843803 -25.027176 -18.614435 -75.486473 -0.513243 8.837544 -50.866737 -45.055595 -139.689377 -2.001953 1.992188 0.000000 -37.347416 138.470001 -89.010689 59.153324 0.505679 8.645303 11.827253 -53.613735 -38.637737 -28.120928 20.971689 14.294381 33.242474 -1.071687 -2.643447 2.161480 -5.076892 -9.055574 -0.977331 -16.970678 -11.544312 35.521297 0.914584 2.703255 -26.013193 -13.929366 14.812865 
1.092204 37.830200 0.569070 -5.257012 -0.487000 -12.090313 2.460938 0.000000 -0.019531 30.134491 7.341472 -21.443855 -9.443359 -0.009766 0.000000 15.410415 12.438352 44.338917 1.992188 -2.001953 0.000341 -31.850227 -19.794371 -16.614250 -83.802269 -0.512315 8.918802 -54.319229 -33.501690 -124.413261 -2.001953 1.992188 0.000000 133.791580 43.532349 86.855598 63.898544 0.506715 8.687951 10.699330 -49.215176 -37.956139 -27.495243 19.506525 13.121766 37.138840 -0.896830 -2.866290 -0.421296 -3.688481 -8.269028 -6.522660 -16.060770 -9.754889 42.265476 0.585873 3.062714 -27.436501 -12.111631 12.989516 
1.300995 37.713909 0.715868 -7.604317 -0.365929 -9.570553 2.460938 0.000000 -0.019531 31.858044 7.206810 -21.771574 -9.443359 -0.009766 0.000000 13.253984 10.268603 41.672489 1.992188 -2.001953 0.000341 -36.525436 -14.425014 -15.136804 -92.109627 -0.527501 9.006906 -54.068310 -21.646936 -111.453079 -2.001953 1.992188 0.000000 124.479691 45.028412 82.209938 68.633728 0.492203 8.733229 9.723906 -44.811310 -37.437443 -26.819847 18.050285 11.952662 41.033428 -0.702556 -3.073117 -3.006495 -2.326426 -7.425881 -12.011216 -14.999062 -8.064864 49.006119 0.234538 3.362811 -28.774261 -10.244463 11.186244 
1.525980 37.669079 0.873686 -10.010008 -0.087373 -6.220710 2.832031 0.000000 -0.019531 33.969746 7.086504 -21.815119 -9.443359 -0.009766 0.000000 10.914116 8.024965 37.877083 1.992188 -2.001953 0.000341 -40.963371 -11.179790 -13.448336 -99.096329 -0.547340 9.071461 -50.047375 -8.372710 -97.148483 -2.001953 1.992188 0.000000 114.635941 46.815380 75.858345 71.874832 0.481388 8.775982 8.849495 -39.833572 -37.101555 -25.518080 16.338511 10.303243 43.989883 -0.550549 -3.220968 -5.292255 -0.788472 -6.717891 -17.992031 -13.334516 -6.154153 55.606514 -0.156017 3.622904 -29.470018 -8.345564 9.265576 
1.750968 37.624256 1.031506 -12.399557 0.331609 -2.890633 3.212891 0.000000 -0.019531 36.086536 6.974859 -21.868431 -9.443359 -0.009766 0.000000 8.752519 5.637234 34.212334 1.992188 -2.001953 0.000341 -45.252220 -7.808535 -12.033878 -106.083549 -0.570592 9.134014 -42.926346 3.491988 -82.101822 -2.001953 1.992188 0.000000 104.297859 47.799347 68.981651 75.125320 0.482610 8.805988 8.053456 -34.843510 -36.861347 -24.166800 14.655759 8.629051 46.897503 -0.391374 -3.337869 -7.581075 0.738160 -5.972796 -23.890179 -11.490806 -4.445441 62.233356 -0.585878 3.841646 -30.094135 -6.447876 7.365138 
2.020694 37.654999 1.220323 -15.027463 0.283197 0.371137 3.593750 0.000000 -0.019531 38.242744 6.753782 -21.739410 -9.443359 -0.009766 0.000000 7.174047 4.067894 30.867748 1.992188 -2.001953 0.000341 -48.692253 -6.011081 -10.750537 -111.463356 -0.602112 9.185720 -33.481022 12.281473 -66.632439 -2.001953 1.992188 0.000000 93.981781 48.061924 61.170895 77.751007 0.480182 8.831310 7.378081 -29.907312 -36.752964 -22.527288 13.221310 6.889395 49.082283 -0.274755 -3.432295 -9.636857 2.065537 -5.485615 -29.832142 -9.530650 -3.017059 68.479561 -1.005607 3.984195 -30.351927 -4.879513 5.870394 
2.290424 37.685741 1.409143 -17.641821 0.380090 3.642692 3.974609 0.000000 -0.019531 40.400452 6.522770 -21.620438 -9.443359 -0.009766 0.000000 5.704249 2.415490 27.575775 1.992188 -2.001953 0.000341 -52.076431 -4.140057 -9.578050 -116.847527 -0.638213 9.241244 -21.612457 18.072504 -49.353268 -2.001953 1.992188 0.000000 83.761078 47.371712 53.458561 80.376640 0.472623 8.865282 6.734470 -24.972017 -36.720184 -20.845339 11.842837 5.136432 51.297089 -0.167550 -3.499892 -11.709570 3.364877 -4.943570 -35.699654 -7.441110 -1.787583 74.754196 -1.445312 4.085418 -30.562714 -3.329990 4.393352 
2.606790 37.718227 1.630626 -19.343830 0.844854 6.065231 4.501953 0.000000 -0.019532 42.548382 6.205886 -21.371519 -9.443359 -0.009766 0.000000 5.429550 2.849076 25.805731 1.992188 -2.001953 0.000341 -53.781605 -4.249588 -9.044913 -119.422539 -0.657645 9.253867 -12.360532 19.865540 -36.521114 -2.001953 1.992188 0.000000 76.841415 46.924713 47.276890 82.123657 0.484222 8.887566 6.343899 -21.581278 -36.824669 -19.197344 11.014444 3.954720 52.856491 -0.070381 -3.576845 -13.465266 4.064363 -4.522963 -41.284657 -5.790007 -1.082075 80.463097 -1.874513 4.138577 -30.993080 -2.355671 3.559578 
2.923168 37.750710 1.852119 -21.015285 1.381297 8.459736 5.029297 0.000000 -0.019531 44.688801 5.868823 -21.140610 -9.443359 -0.009766 0.000000 5.154382 3.282847 24.036171 1.992188 -2.001953 0.000341 -55.479977 -4.340865 -8.498730 -122.007561 -0.673297 9.272881 -2.875989 19.653418 -23.501101 -2.001953 1.992188 0.000000 70.119781 45.972557 41.301823 83.870728 0.483752 8.919299 5.957738 -18.182169 -36.950974 -17.521811 10.219909 2.761738 54.396626 0.007132 -3.650522 -15.204433 4.768988 -4.093144 -46.826546 -4.081315 -0.518279 86.173714 -2.284649 4.153536 -31.380733 -1.372906 2.714737 
3.342872 37.750805 2.146143 -21.879120 1.588667 9.622989 5.566407 0.000000 -0.019531 46.796131 5.451008 -20.840721 -9.443359 -0.009766 0.000000 5.097775 4.691270 23.345325 1.992188 -2.001953 0.000341 -55.325382 -6.422692 -8.736076 -121.487717 -0.666416 9.271540 1.632106 18.843147 -17.241104 -2.001953 1.992188 0.000000 66.779747 46.468349 37.127476 84.593002 0.477154 8.926997 5.873491 -16.541821 -37.358479 -16.384968 9.725443 2.316262 55.370701 0.102653 -3.687217 -16.568884 5.214763 -3.637722 -52.367329 -3.270999 -0.404879 91.690994 -2.675227 4.133695 -32.548485 -0.971120 2.449984 
3.762592 37.750889 2.440179 -22.728971 1.822706 10.786912 6.113281 0.000000 -0.019531 48.887531 5.030755 -20.560499 -9.443359 -0.009766 0.000000 5.020139 6.106077 22.636450 1.992188 -2.001953 0.000341 -55.157505 -8.513238 -8.985396 -120.966896 -0.659823 9.271053 6.006464 17.578623 -11.098341 -2.001953 1.992188 0.000000 63.362259 46.793236 32.879768 85.324959 0.489727 8.924463 5.780647 -14.908660 -37.747803 -15.253390 9.228333 1.830188 56.335751 0.163323 -3.720433 -17.936012 5.625834 -3.163613 -57.912731 -2.441299 -0.380966 97.220467 -3.065960 4.063081 -33.723438 -0.585421 2.215626 
4.298563 37.716217 2.815813 -22.843971 1.734654 11.079425 6.679688 0.000000 -0.019531 50.922749 4.545600 -20.251633 -9.443359 -0.009766 0.000000 4.399141 6.712351 22.044302 1.992188 -2.001953 0.000341 -53.651150 -11.989379 -9.795770 -118.262131 -0.643995 9.248196 7.488647 17.031988 -8.965098 -2.001953 1.992188 0.000000 61.336971 48.117950 29.400328 85.393272 0.489968 8.931255 5.870218 -14.017892 -38.461212 -14.738495 8.637968 1.746012 56.834057 0.173008 -3.719026 -18.912907 6.375299 -2.550709 -63.566372 -2.343685 -0.537169 102.508316 -3.427543 3.972419 -35.490314 -0.591471 2.263192 
